<svg width="458" height="142" xmlns="http://www.w3.org/2000/svg" xml:space="preserve"><path d="M290.4 58h-32.2l-16.1 27.9 16.1 27.9h32.2l16.1-27.9z"/><path fill="#3C3C3B" class="st0" d="M340.7 86.5h-32.2l-16.1 27.9 16.1 27.9h32.2l16.1-27.9z"/><path fill="#575756" class="st1" d="M340.7 28.8h-32.2l-16.1 27.9 16.1 27.9h32.2l16.1-27.9z"/><path fill="#706F6F" class="st2" d="M390.8 58h-32.2l-16.1 27.9 16.1 27.9h32.2l16.1-27.9z"/><path fill="#9D9D9C" class="st3" d="M441.7 86.5h-32.2l-16.1 27.9 16.1 27.9h32.2l16.1-27.9z"/><path fill="#878787" class="st4" d="M390.8 0h-32.2l-16.1 27.9 16.1 27.8h32.2l16.1-27.8z"/><path d="M38.7 31.9h10.8v82.8h-23c-8.1 0-14.5-2.5-19.3-7.6S0 95.1 0 86.6c0-8 2.5-14.6 7.6-19.8 5-5.2 11.5-7.8 19.3-7.8 3.6 0 7.6.8 11.9 2.3V31.9h-.1zm0 73.6V70.9c-3.4-1.7-6.8-2.5-10.2-2.5-5.4 0-9.7 1.8-12.8 5.3-3.2 3.5-4.8 8.3-4.8 14.2 0 5.6 1.4 9.9 4.1 13 1.7 1.8 3.4 3 5.3 3.7 1.9.6 5.2.9 10 .9h8.4zM75 60.2v6.9c4.8-5.3 10.3-8 16.4-8 3.4 0 6.6.9 9.5 2.6 2.9 1.8 5.1 4.2 6.7 7.2 1.5 3.1 2.3 7.9 2.3 14.5v31.2H99V83.5c0-5.6-.9-9.6-2.5-11.9C94.8 69.2 92 68 88 68c-5.1 0-9.4 2.5-13 7.6v38.9H64V60h11v.2zm85.3-29.4h4.9v46.5h9.2v10.1h-9.2v27.3h-11.6V87.4h-35v-5.1l41.7-51.5zm-6.7 46.5v-24l-19.2 24h19.2zm49.3 26h31.5v11.4H182v-.8l5-5.9c7.8-9.6 14-17.8 18.6-24.5 4.6-6.7 7.6-11.8 9-15.2 1.4-3.4 2.1-6.8 2.1-10.2 0-4.7-1.3-8.4-4-11.2-2.6-2.8-6.2-4.2-10.5-4.2-3.3 0-6.6 1-9.8 2.9-3.2 2-6.1 4.7-8.7 8.3V38.8c6.4-5.3 13.1-7.9 19.9-7.9 7.2 0 13.2 2.4 17.9 7.2 4.7 4.8 7 10.9 7 18.4 0 3.3-.6 6.9-1.7 10.6-1.2 3.8-3.2 8.1-6.2 13s-8 11.6-15.1 20.1l-2.6 3.1z"/></svg>
